<svg width="311" height="74" viewBox="0 0 311 74" fill="none" xmlns="http://www.w3.org/2000/svg">
<path d="M3.93754 28.1797C1.31441 29.0426 -0.112524 31.8686 0.750397 34.4918C1.61332 37.1149 4.43932 38.5418 7.06246 37.6789L3.93754 28.1797ZM309.432 36.0181C311.138 33.8466 310.76 30.7033 308.589 28.9975L273.202 1.19879C271.03 -0.507072 267.887 -0.129587 266.181 2.04193C264.475 4.21345 264.853 7.35669 267.024 9.06255L298.479 33.7725L273.769 65.2275C272.064 67.399 272.441 70.5423 274.613 72.2481C276.784 73.954 279.927 73.5765 281.633 71.405L309.432 36.0181ZM7.06246 37.6789C52.1768 22.8378 97.9437 26.0763 147.258 31.5765C196.339 37.0507 248.887 44.7641 306.096 37.8937L304.904 27.965C249.113 34.6652 197.911 27.164 148.367 21.6381C99.0563 16.1384 51.3232 12.5915 3.93754 28.1797L7.06246 37.6789Z" fill="black"/>
</svg>
