<svg width="311" height="69" viewBox="0 0 311 69" fill="none" xmlns="http://www.w3.org/2000/svg">
<path d="M8.25178 17.7546C5.94618 16.2348 2.84512 16.8719 1.32535 19.1775C-0.194417 21.4831 0.442625 24.5841 2.74822 26.1039L8.25178 17.7546ZM310.138 23.7964C311.169 21.2347 309.929 18.3221 307.367 17.291L265.622 0.487451C263.06 -0.543696 260.148 0.697044 259.117 3.25872C258.086 5.8204 259.326 8.73296 261.888 9.76411L298.995 24.7006L284.058 61.8072C283.027 64.3689 284.268 67.2814 286.829 68.3126C289.391 69.3437 292.304 68.103 293.335 65.5413L310.138 23.7964ZM2.74822 26.1039C7.74377 29.3968 14.9701 32.2823 23.6104 34.8108C32.3333 37.3635 42.8269 39.6448 54.5792 41.5968C78.0884 45.5015 106.901 48.132 137.183 48.9181C197.529 50.4848 264.679 44.7536 307.46 26.5293L303.54 17.3293C262.821 34.6757 197.471 40.4799 137.442 38.9215C107.536 38.1451 79.1929 35.548 56.2177 31.7319C44.7278 29.8235 34.6471 27.6212 26.4189 25.2133C18.108 22.7812 12.0062 20.2294 8.25178 17.7546L2.74822 26.1039Z" fill="black"/>
</svg>
