<svg width="311" height="65" viewBox="0 0 311 65" fill="none" xmlns="http://www.w3.org/2000/svg">
<path d="M1.1596 57.018C-0.211238 59.4151 0.620738 62.4697 3.01787 63.8405C5.41501 65.2114 8.46956 64.3794 9.8404 61.9823L1.1596 57.018ZM305.453 64.5C308.214 64.5258 310.474 62.3083 310.5 59.547L310.921 14.549C310.947 11.7876 308.729 9.52821 305.968 9.50236C303.207 9.47651 300.947 11.694 300.922 14.4553L300.547 54.4536L260.549 54.0791C257.787 54.0532 255.528 56.2708 255.502 59.0321C255.476 61.7934 257.694 64.0528 260.455 64.0787L305.453 64.5ZM9.8404 61.9823C11.9195 58.3466 16.3367 53.8596 23.2278 48.9788C30.0254 44.1642 38.8726 39.2162 49.3502 34.5338C70.3029 25.1701 97.4382 17.0188 126.999 13.0813C186.249 5.18946 254.155 14.3224 301.932 63.0024L309.068 55.9979C258.21 4.17776 186.552 -4.93928 125.679 3.16887C95.1785 7.23144 67.1126 15.6426 45.2702 25.404C34.3503 30.2841 24.9015 35.5392 17.448 40.8183C10.0879 46.0313 4.29876 51.5287 1.1596 57.018L9.8404 61.9823Z" fill="black"/>
</svg>
