<svg width="316" height="72" viewBox="0 0 316 72" fill="none" xmlns="http://www.w3.org/2000/svg">
<path d="M2.42514 14.6531C0.833345 15.7083 0.398277 17.854 1.45339 19.4458C2.50851 21.0376 4.65426 21.4727 6.24606 20.4176L2.42514 14.6531ZM312.901 62.7611C314.735 62.2285 315.79 60.3099 315.258 58.476L306.577 28.5901C306.045 26.7561 304.126 25.7012 302.292 26.2339C300.458 26.7666 299.403 28.6851 299.936 30.519L307.652 57.0843L281.086 64.8C279.253 65.3327 278.198 67.2512 278.73 69.0851C279.263 70.9191 281.181 71.974 283.015 71.4413L312.901 62.7611ZM6.24606 20.4176C13.6799 15.4901 28.627 11.2588 49.3569 8.92557C69.9104 6.61216 95.6412 6.21623 124.214 8.58684C181.379 13.3297 249.617 29.1199 310.271 62.4705L313.603 56.4104C251.901 22.4834 182.667 6.49702 124.786 1.69475C95.8354 -0.707191 69.6487 -0.317828 48.5833 2.05319C27.6942 4.40437 11.3209 8.75665 2.42514 14.6531L6.24606 20.4176Z" fill="#241108"/>
</svg>
