<svg width="207" height="51" viewBox="0 0 207 51" fill="none" xmlns="http://www.w3.org/2000/svg">
<path d="M3.40695 36.0895C1.51618 36.3429 0.24889 38.0753 0.576377 39.9588C0.903865 41.8423 2.70212 43.1638 4.59288 42.9104L3.40695 36.0895ZM205.865 24.552C206.951 23.0264 206.548 20.8709 204.965 19.7376L179.176 1.26931C177.594 0.13601 175.431 0.454053 174.346 1.97968C173.261 3.50532 173.664 5.66081 175.246 6.79412L198.169 23.2104L182.449 45.3096C181.363 46.8352 181.766 48.9907 183.349 50.124C184.931 51.2573 187.094 50.9393 188.179 49.4136L205.865 24.552ZM4.59288 42.9104C28.6988 39.6797 65.55 37.3127 102.927 34.8084C140.191 32.3116 177.971 29.6786 203.637 25.9043L202.363 19.0957C177.029 22.8214 139.559 25.4384 102.198 27.9416C64.9499 30.4373 27.8011 32.8202 3.40695 36.0895L4.59288 42.9104Z" fill="#241108"/>
</svg>
